<svg width="1600" height="980" viewBox="0 0 1600 980" fill="none" xmlns="http://www.w3.org/2000/svg">
  <rect width="1600" height="980" rx="42" fill="#0A3734"/>
  <circle cx="1270" cy="180" r="300" fill="#D9FF73" fill-opacity=".12"/>
  <circle cx="290" cy="850" r="360" fill="#58C9C0" fill-opacity=".12"/>
  <rect x="190" y="190" width="820" height="560" rx="34" fill="#F6F3EE"/>
  <rect x="245" y="252" width="315" height="28" rx="14" fill="#DDE5DE"/>
  <rect x="245" y="312" width="530" height="52" rx="16" fill="#123B38"/>
  <rect x="245" y="390" width="680" height="22" rx="11" fill="#DDE5DE"/>
  <rect x="245" y="430" width="575" height="22" rx="11" fill="#DDE5DE"/>
  <rect x="245" y="510" width="310" height="178" rx="24" fill="#D9FF73"/>
  <path d="M285 640C330 605 360 627 395 570C430 515 473 558 510 536" stroke="#123B38" stroke-width="13" stroke-linecap="round"/>
  <rect x="590" y="510" width="335" height="178" rx="24" fill="#E4EDE9"/>
  <path d="M635 635L688 580L740 610L810 540L875 565" stroke="#0A3734" stroke-width="13" stroke-linecap="round" stroke-linejoin="round"/>
  <g filter="url(#shadow)"><rect x="905" y="122" width="380" height="520" rx="36" fill="#FFFDF9"/><rect x="952" y="184" width="286" height="36" rx="18" fill="#0A3734"/><rect x="952" y="258" width="214" height="18" rx="9" fill="#DDE5DE"/><rect x="952" y="294" width="238" height="18" rx="9" fill="#DDE5DE"/><circle cx="1095" cy="424" r="82" fill="#D9FF73"/><path d="M1055 428L1085 458L1142 392" stroke="#0A3734" stroke-width="16" stroke-linecap="round" stroke-linejoin="round"/><rect x="988" y="546" width="214" height="26" rx="13" fill="#58C9C0"/></g>
  <defs><filter id="shadow" x="865" y="92" width="460" height="600" filterUnits="userSpaceOnUse"><feDropShadow dx="0" dy="20" stdDeviation="20" flood-color="#001C1A" flood-opacity=".35"/></filter></defs>
</svg>
