<svg width="1200" height="760" viewBox="0 0 1200 760" fill="none" xmlns="http://www.w3.org/2000/svg">
<rect width="1200" height="760" rx="36" fill="#123B38"/><path d="M0 560C210 460 313 691 570 560C770 458 910 624 1200 500V760H0V560Z" fill="#0A3734"/><circle cx="180" cy="172" r="105" fill="#D9FF73"/><rect x="255" y="135" width="700" height="470" rx="35" fill="#FFFDF9"/><rect x="307" y="190" width="315" height="34" rx="17" fill="#0A3734"/><rect x="307" y="270" width="190" height="260" rx="25" fill="#E7F0EC"/><rect x="530" y="270" width="372" height="92" rx="25" fill="#D9FF73"/><rect x="530" y="392" width="372" height="138" rx="25" fill="#E7F0EC"/><circle cx="402" cy="358" r="54" fill="#58C9C0"/><path d="M355 457C365 404 438 404 449 457" stroke="#0A3734" stroke-width="15" stroke-linecap="round"/><path d="M572 462C630 431 667 463 718 420C771 374 822 433 864 393" stroke="#0A3734" stroke-width="14" stroke-linecap="round"/></svg>
